# AST/ASF file generated using VICON BodyLanguage
# -----------------------------------------------
:version 1.10
:name VICON
:units
  mass 1.0
  length 0.45
  angle deg
:documentation
   .ast/.asf automatically generated from VICON data using
   VICON BodyBuilder and BodyLanguage model FoxedUp or BRILLIANT.MOD
:root
   order TX TY TZ RX RY RZ
   axis XYZ
   position 0 0 0  
   orientation 0 0 0 
:bonedata
  begin
     id 1 
     name lhipjoint
     direction 0.702568 -0.596508 0.388042 
     length 2.56661 
     axis 0 0 0  XYZ
  end
  begin
     id 2 
     name lfemur
     direction 0.34202 -0.939693 0  
     length 6.58374  
     axis 0 0 20  XYZ
    dof rx ry rz
    limits (-160.0 20.0)
           (-70.0 70.0)
           (-60.0 70.0)
  end
  begin
     id 3 
     name ltibia
     direction 0.34202 -0.939693 0   
     length 6.62538   
     axis 0 0 20   XYZ
    dof rx
    limits (-10.0 170.0)
  end
  begin
     id 4 
     name lfoot
     direction 0.10455 -0.287249 0.952133   
     length 2.26699   
     axis -90 7.62852e-016 20   XYZ
    dof rx rz
    limits (-45.0 90.0)
           (-70.0 20.0)
  end
  begin
     id 5 
     name ltoes
     direction 1.53572e-011 -4.22322e-011 1   
     length 1.12949   
     axis -90 7.62852e-016 20   XYZ
    dof rx
    limits (-90.0 20.0)
  end
  begin
     id 6 
     name rhipjoint
     direction -0.728055 -0.574632 0.373811   
     length 2.66432  
     axis 0 0 0  XYZ 
  end
  begin
     id 7 
     name rfemur
     direction -0.34202 -0.939693 0   
     length 6.66732   
     axis 0 0 -20   XYZ
    dof rx ry rz
    limits (-160.0 20.0)
           (-70.0 70.0)
           (-70.0 60.0)
  end
  begin
     id 8 
     name rtibia
     direction -0.34202 -0.939693 0   
     length 6.59288   
     axis 0 0 -20   XYZ
    dof rx
    limits (-10.0 170.0)
 end
 begin
     id 9 
     name rfoot
     direction -0.119193 -0.327479 0.93731   
     length 2.38061  
     axis -90 -7.62852e-016 -20   XYZ
    dof rx rz
    limits (-45.0 90.0)
           (-20.0 70.0)
  end
  begin
     id 10 
     name rtoes
     direction -1.53547e-011 -4.21827e-011 1   
     length 1.17899   
     axis -90 -7.62852e-016 -20   XYZ
    dof rx
    limits (-90.0 20.0)
  end
  begin
     id 11 
     name lowerback
     direction -0.000416114 0.999912 -0.0132284   
     length 2.12109   
     axis 0 0 0   XYZ
    dof rx ry rz
    limits (-20.0 45.0)
           (-30.0 30.0)
           (-30.0 30.0)
  end
  begin
     id 12 
     name upperback
     direction -0.00136371 0.99809 0.0617608   
     length 2.10067   
     axis 0 0 0   XYZ
    dof rx ry rz
    limits (-20.0 45.0)
           (-30.0 30.0)
           (-30.0 30.0)
  end
  begin
     id 13 
     name thorax
     direction -3.43026e-005 0.997776 0.0666515   
     length 2.10618   
     axis 0 0 0   XYZ
    dof rx ry rz
    limits (-20.0 45.0)
           (-30.0 30.0)
           (-30.0 30.0)
  end
  begin
     id 14 
     name lowerneck
     direction 0.0398646 0.998418 0.0396592   
     length 1.83817   
     axis 0 0 0   XYZ
    dof rx ry rz
    limits (-20.0 45.0)
           (-30.0 30.0)
           (-30.0 30.0)
  end
  begin
     id 15 
     name upperneck
     direction -0.0367268 0.961527 -0.272244   
     length 1.81975   
     axis 0 0 0   XYZ
    dof rx ry rz
    limits (-20.0 45.0)
           (-30.0 30.0)
           (-30.0 30.0)
  end
  begin
     id 16
     name head
     direction -0.0182665 0.99536 -0.0944669  
     length 1.86026  
     axis 0 0 0   XYZ
    dof rx ry rz
    limits (-20.0 45.0)
           (-30.0 30.0)
           (-30.0 30.0)
  end
  begin
     id 17 
     name lclavicle
     direction 0.924239 0.361045 0.124212  
     length 3.26878  
     axis 0 0 0   XYZ
    dof ry rz
    limits (-20.0 10.0)
           (0.0 20.0)
  end
  begin
     id 18 
     name lhumerus
     direction 1 -4.48968e-011 -2.56583e-027   
     length 4.58538   
     axis 180 -30 -90   XYZ
    dof rx ry rz
    limits (-60.0 90.0)
           (-90.0 90.0)
           (-90.0 90.0)
  end
  begin
     id 19
     name lradius
     direction 1 -4.4898e-011 -5.50375e-027   
     length 2.68935   
     axis 180 -30 -90   XYZ
    dof rx
    limits (-10.0 170.0)
  end
  begin
     id 20
     name lwrist
     direction 1 -4.48939e-011 -1.48955e-026   
     length 1.34468   
     axis 9.0955e-015 90 90   XYZ
    dof ry
    limits (-180.0 0.0)
 end
  begin
     id 21 
     name lhand
     direction 1 -4.48936e-011 -2.97907e-026   
     length 0.585058   
     axis 1.90115e-014 90 90   XYZ
    dof rx rz
    limits (-90.0 90.0)
           (-45.0 45.0)
  end
  begin
     id 22 
     name lfingers
     direction 1 -4.49082e-011 -5.96235e-026   
     length 0.471689   
     axis 3.80223e-014 90 90   XYZ
    dof rx
    limits (0.0 90.0)
  end
  begin
     id 23
     name lthumb
     direction 0.707107 -6.3489e-011 0.707107   
     length 0.677253   
     axis -90 45 -3.84942e-014   XYZ
    dof rx rz
    limits (-45.0 45.0)
           (-45.0 45.0)
  end
  begin
     id 24 
     name rclavicle
     direction -0.923098 0.371783 0.0983239   
     length 3.19656  
     axis 0 0 0   XYZ 
    dof ry rz
    limits (-10.0 20.0)
           (-20.0 0.0)
  end
  begin
     id 25 
     name rhumerus
     direction -1 -4.48976e-011 -2.5492e-027  
     length 4.4745   
     axis 180 30 90   XYZ
    dof rx ry rz
    limits (-90.0 60.0)
           (-90.0 90.0)
           (-90.0 90.0)
  end
  begin
     id 26 
     name rradius
     direction -1 -4.48941e-011 -4.36555e-027   
     length 2.93896   
     axis 180 30 90   XYZ
    dof rx
    limits (-10.0 170.0)
  end
  begin
     id 27 
     name rwrist
     direction -1 -4.49044e-011 -1.49032e-026   
     length 1.46948   
     axis 9.0955e-015 -90 -90   XYZ
    dof ry
    limits (-180.0 0.0)
  end
  begin
     id 28
     name rhand
     direction -1 -4.48826e-011 -2.97749e-026   
     length 0.405092   
     axis 1.90115e-014 -90 -90   XYZ
    dof rx rz
    limits (-90.0 90.0)
           (-45.0 45.0)
  end
  begin
     id 29
     name rfingers
     direction -1 -4.49209e-011 -5.96602e-026   
     length 0.326596   
     axis 3.80223e-014 -90 -90   XYZ
    dof rx
    limits (0.0 90.0)
  end
  begin
     id 30
     name rthumb
     direction -0.707107 -6.34776e-011 0.707107   
     length 0.468928   
     axis -90 -45 3.84942e-014   XYZ
    dof rx rz
    limits (-45.0 45.0)
           (-45.0 45.0)
  end
:hierarchy
  begin
    root lhipjoint rhipjoint lowerback
    lhipjoint lfemur
    lfemur ltibia
    ltibia lfoot
    lfoot ltoes
    rhipjoint rfemur
    rfemur rtibia
    rtibia rfoot
    rfoot rtoes
    lowerback upperback
    upperback thorax
    thorax lowerneck lclavicle rclavicle
    lowerneck upperneck
    upperneck head
    lclavicle lhumerus
    lhumerus lradius
    lradius lwrist
    lwrist lhand lthumb
    lhand lfingers
    rclavicle rhumerus
    rhumerus rradius
    rradius rwrist
    rwrist rhand rthumb
    rhand rfingers
  end

#!OML:ASF H:\Punching\Project 1\Capture day 1\Session 1\female.ASF
:FULLY-SPECIFIED
:DEGREES
426
root -0.69797 14.9354 7.01043 17.8295 -25.1994 -4.90488
lowerback -3.71666 -1.74476 -1.60778
upperback -6.15376 -2.37585 -0.0842865
thorax -4.20758 -1.14333 0.812944
lowerneck -0.872564 9.18913 21.5939
upperneck 32.5657 11.1811 -3.24702
head 12.633 7.12145 -3.53552
rclavicle 5.78712e-014 2.78299e-014
rhumerus 6.2225 31.4383 -88.0564
rradius 132.716
rwrist -42.0429
rhand -16.9713 -2.43651
rfingers 7.12502
rthumb 9.26307 -32.213
lclavicle 5.78712e-014 2.78299e-014
lhumerus 26.6146 -20.7941 65.1144
lradius 112.923
lwrist 29.73
lhand -15.0554 35.6666
lfingers 7.12502
lthumb 11.1114 65.3524
rfemur -50.2477 16.573 12.0959
rtibia 42.1623
rfoot -10.5576 5.83556
rtoes -4.23044
lfemur 20.2614 13.2964 -10.1318
ltibia 1.90833e-014
lfoot -12.2356 7.54872
ltoes -28.5275
427
root -0.68191 14.8856 7.0421 17.6144 -27.4678 -4.92475
lowerback -4.00721 -1.95818 -1.80365
upperback -6.18499 -2.66186 -0.169109
thorax -4.06615 -1.28421 0.823652
lowerneck -0.0891989 9.75015 22.3353
upperneck 32.9752 12.1467 -3.55353
head 12.9013 7.61957 -3.64833
rclavicle -1.91517e-014 7.95139e-015
rhumerus 5.96135 32.0567 -88.2843
rradius 132.238
rwrist -41.7805
rhand -17.1598 -2.61394
rfingers 7.12502
rthumb 9.08118 -32.3984
lclavicle -1.91517e-014 7.95139e-015
lhumerus 27.8489 -19.7738 63.9854
lradius 108.52
lwrist 28.6016
lhand -14.7396 35.6069
lfingers 7.12502
lthumb 11.4158 65.2762
rfemur -50.8794 17.5487 11.9871
rtibia 42.9786
rfoot -10.7523 6.88456
rtoes -3.90844
lfemur 21.4208 15.2393 -10.3804
ltibia 9.54166e-015
lfoot -12.7349 6.58121
ltoes -28.0823
428
root -0.667724 14.8353 7.07135 17.4025 -29.5642 -4.93141
lowerback -4.30741 -2.18349 -1.97943
upperback -6.21751 -2.96199 -0.246165
thorax -3.92024 -1.43313 0.828154
lowerneck 0.684694 10.2573 23.0151
upperneck 33.3562 13.0352 -3.80548
head 13.1534 8.08101 -3.73904
rclavicle 1.79993e-014 0
rhumerus 5.73417 32.6476 -88.4718
rradius 131.708
rwrist -41.2955
rhand -17.4401 -2.86297
rfingers 7.12502
rthumb 8.8107 -32.659
lclavicle 1.79993e-014 0
lhumerus 29.1906 -18.7691 62.8298
lradius 103.529
lwrist 26.9876
lhand -14.3202 35.5168
lfingers 7.12502
lthumb 11.8203 65.1632
rfemur -51.4977 18.4837 11.8704
rtibia 43.8127
rfoot -10.9526 7.80973
rtoes -3.59949
lfemur 22.5095 17.022 -10.5851
ltibia -6.36111e-015
lfoot -13.2396 5.71722
ltoes -27.6787
429
root -0.655385 14.7866 7.09796 17.247 -31.4382 -4.99289
lowerback -4.62657 -2.4107 -2.05981
upperback -6.24294 -3.26346 -0.307153
thorax -3.75969 -1.58671 0.792355
lowerneck 1.39061 10.7099 23.6315
upperneck 33.7046 13.8316 -4.00796
head 13.3925 8.49734 -3.80942
rclavicle -2.33572e-014 -9.54166e-015
rhumerus 5.55721 33.169 -88.5994
rradius 131.184
rwrist -40.6364
rhand -17.7565 -3.30854
rfingers 7.12502
rthumb 8.50531 -33.1173
lclavicle -2.33572e-014 -9.54166e-015
lhumerus 30.6979 -17.8032 61.6588
lradius 97.9288
lwrist 24.8898
lhand -13.821 35.3978
lfingers 7.12502
lthumb 12.3017 65.0159
rfemur -52.0882 19.3766 11.7971
rtibia 44.6087
rfoot -11.1407 8.58874
rtoes -3.32013
lfemur 23.4961 18.618 -10.6913
ltibia 3.18055e-015
lfoot -13.7317 4.96979
ltoes -27.3159
430
root -0.644868 14.741 7.1221 17.141 -33.0472 -5.09862
lowerback -4.95887 -2.64265 -2.04823
upperback -6.25083 -3.57086 -0.359906
thorax -3.57823 -1.74706 0.709832
lowerneck 2.0079 11.1042 24.1928
upperneck 34.006 14.5248 -4.17079
head 13.6118 8.86284 -3.86587
rclavicle 1.03915e-013 -1.51076e-014
rhumerus 5.45517 33.5911 -88.6775
rradius 130.674
rwrist -39.8647
rhand -17.9831 -3.8872
rfingers 7.12502
rthumb 8.28663 -33.7047
lclavicle 1.03915e-013 -1.51076e-014
lhumerus 32.3948 -16.8831 60.4991
lradius 91.7171
lwrist 22.3695
lhand -13.2714 35.2546
lfingers 7.12502
lthumb 12.8316 64.8402
rfemur -52.62 20.1855 11.7654
rtibia 45.3427
rfoot -11.3154 9.22642
rtoes -3.05388
lfemur 24.3711 19.9867 -10.719
ltibia 3.18055e-014
lfoot -14.199 4.35887
ltoes -27.0394
